<svg xmlns="http://www.w3.org/2000/svg" viewBox="0 0 1440 629"><g fill="#063262" fill-rule="nonzero" opacity=".2"><path d="M1438.327 548.327v-20.822h-20.832v20.822h20.832" opacity=".14"/><path d="M1413.285 547.905v-20.831h-20.822v20.831h20.822" opacity=".23"/><path d="M1413.285 522.915v-20.831h-20.822v20.831h20.822" opacity=".07"/><path d="M1388.323 622.905v-20.804h-20.831v20.804h20.831m45.994 0v-20.804h-20.831v20.804h20.831" opacity=".23"/><path d="M1388.323 547.905v-20.831h-20.831v20.831h20.831" opacity=".14"/><path d="M1388.323 497.916v-20.822h-20.831v20.822h20.831m-24.99 74.989v-20.804h-20.831v20.804h20.831m0-25v-20.831h-20.831v20.831h20.831" opacity=".23"/><path d="M1363.333 522.915v-20.831h-20.831v20.831h20.831" opacity=".1"/><g><path d="M1320 87.597V66.775h20.831v20.822H1320" opacity=".14"/><path d="M1363.187 63.399V42.577h20.832v20.822h-20.832" opacity=".08"/><path d="M1388.215 163.405v-20.831h20.822v20.831h-20.822" opacity=".23"/><path d="M1388.215 138.415v-20.831h20.822v20.831h-20.822" opacity=".07"/><path d="M1388.215 63.399V42.577h20.822v20.822h-20.822" opacity=".16"/><path d="M1413.177 188.405v-20.804h20.831v20.804h-20.831" opacity=".23"/><path d="M1413.177 163.405v-20.831h20.831v20.831h-20.831" opacity=".14"/><path d="M1413.177 113.416V92.594h20.831v20.822h-20.831m0-50.017V42.577h20.831v20.822h-20.831m24.99 125.006v-20.804h20.831v20.804h-20.831m0-25v-20.831h20.831v20.831h-20.831" opacity=".23"/><path d="M1438.167 138.415v-20.831h20.831v20.831h-20.831" opacity=".1"/></g><g><path d="M17.416 456.191H-3.406v20.828h20.822v-20.828M21.328 403H.506v20.828h20.822V403" opacity=".14"/><path d="M67.405 531.197H46.574v20.819h20.831v-20.819" opacity=".23"/><path d="M42.415 531.197H21.584v20.819h20.831v-20.819" opacity=".07"/><path d="M92.405 556.155H71.601v20.828h20.804v-20.828" opacity=".23"/><path d="M67.405 556.155H46.574v20.828h20.831v-20.828" opacity=".14"/><path d="M42.415 556.155H21.584v20.828h20.831v-20.828m-24.999 0H-3.406v20.828h20.822v-20.828m74.989 24.987H71.601v20.828h20.804v-20.828m-25 0H46.574v20.828h20.831v-20.828" opacity=".23"/><path d="M42.415 581.142H21.584v20.828h20.831v-20.828" opacity=".1"/></g><g><path d="M595.399 583.197h-20.822v20.819h20.822v-20.819" opacity=".16"/><path d="M760.405 608.155h-20.804v20.828h20.804v-20.828m42.398-.155H782v20.828h20.803V608" opacity=".23"/><path d="M735.405 608.155h-20.831v20.828h20.831v-20.828" opacity=".14"/><path d="M710.415 608.155h-20.831v20.828h20.831v-20.828M685.822 582H665v20.828h20.822V582m-25.396 26.155h-20.831v20.828h20.831v-20.828m-25.027 0h-20.822v20.828h20.822v-20.828M542.822 603H522v20.828h20.822V603" opacity=".23"/></g><g><path d="M1011.415.197h-20.831v20.819h20.831V.197" opacity=".07"/><path d="M1061.405 65.155h-20.804v20.828h20.804V65.155m-49.99 0h-20.831v20.828h20.831V65.155M986.822 39H966v20.828h20.822V39m-50.423 26.155h-20.822v20.828h20.822V65.155" opacity=".23"/></g><g><path d="M52.405 151.155H31.601v20.828h20.804v-20.828" opacity=".23"/></g><g><path d="M459.198 124.416v-20.822h20.831v20.822h-20.831m-24.294-25.819V77.775h20.832v20.822h-20.832m-28.904 0V77.775h20.831v20.822H406m0 29.731v-20.822h20.831v20.822H406" opacity=".14"/><path d="M509.187 74.399V53.577h20.832v20.822h-20.832m0-34.586V18.991h20.832v20.822h-20.832" opacity=".08"/><path d="M534.215 149.415v-20.831h20.822v20.831h-20.822" opacity=".07"/><path d="M534.215 74.399V53.577h20.822v20.822h-20.822" opacity=".16"/><path d="M559.177 124.416v-20.822h20.831v20.822h-20.831m-49.163-13.99V89.595h20.831v20.831h-20.831m49.163-36.027V53.577h20.831v20.822h-20.831" opacity=".23"/><path d="M584.167 149.415v-20.831h20.831v20.831h-20.831" opacity=".1"/></g></g></svg>