<svg fill="none" height="21" viewBox="0 0 29 21" width="29" xmlns="http://www.w3.org/2000/svg"><path clip-rule="evenodd" d="m2.46158 10.6103v-.2853c1.75876-.1785 2.61976-1.07625 2.61976-2.8v-3.14475c0-1.9145.68249-2.6915 2.36949-2.6915h.47776v-1.68875h-.658c-2.82101 0-4.151 1.32825-4.151 4.116v2.667c0 1.9145-.65801 2.548-2.607505 2.548v2.2732c1.949495 0 2.607505.6336 2.607505 2.5481v2.667c0 2.7877 1.32824 4.116 4.151 4.116h.658v-1.687h-.47776c-1.687 0-2.36949-.777-2.36949-2.6915v-3.1465c0-1.722-.861-2.6198-2.61976-2.8zm24.10102-.2853v.287c-1.7588.1803-2.6198 1.078-2.6198 2.8v3.1465c0 1.9145-.6825 2.6915-2.3695 2.6915h-.4777v1.687h.658c2.8227 0 4.151-1.3282 4.151-4.116v-2.667c0-1.9145.658-2.548 2.6075-2.548v-2.275c-1.9495 0-2.6075-.6335-2.6075-2.548v-2.667c0-2.78775-1.33-4.116-4.151-4.116h-.658v1.687h.4777c1.687 0 2.3695.777 2.3695 2.6915v3.1465c0 1.722.861 2.6198 2.6198 2.8zm-12.9255 6.3v-4.0127l-2.8368 2.8367-1.23722-1.2372 2.83502-2.8368h-4.01102v-1.75h4.01272l-2.83672-2.83675 1.23722-1.23725 2.8368 2.835v-4.011h1.75v4.01275l2.8367-2.83675 1.2373 1.23725-2.835 2.83675h4.011v1.75h-4.0128l2.8368 2.8368-1.2373 1.2372-2.8367-2.835v4.011z" fill="#2a2238" fill-rule="evenodd"/></svg>