<svg xmlns="http://www.w3.org/2000/svg" width="129" height="152" fill="none"><path fill="#071525" fill-opacity=".1" fill-rule="evenodd" d="m33.004-38-5.644 3.464-75.79 46.73L-63 21.172v70.696l14.57 8.979 75.79 46.723 5.644 3.47 5.635-3.47 75.783-46.723L129 91.868V21.172l-14.578-8.978-75.783-46.73L33.004-38Zm-47.149 76.846-10.07-6.22-18.571-11.454 75.79-46.73 75.775 46.73-18.57 11.453-10.071 6.221-47.134 29.057-47.149-29.057Zm52.506 38.176.278-.148 51.57-31.813 10.142-6.215 14.071-8.695 3.857-2.404V50.37l-9.5 6.143-70.418 43.415V77.022Zm-81.147-20.509-9.493-6.072V27.747l3.85 2.404 14.078 8.695 10.135 6.215 51.577 31.813.278.148v22.906l-70.425-43.415Zm81.147 55.857.278-.141 75.783-46.73 3.857-2.404v22.623l-9.5 6.15-70.418 43.408V112.37Zm-81.147-20.502-9.493-6.08V63.095l3.85 2.404 75.79 46.73.278.141v22.906l-70.425-43.408Z" clip-rule="evenodd"/></svg>