<svg xmlns="http://www.w3.org/2000/svg" xml:space="preserve" style="enable-background:new 0 0 593 157" viewBox="0 0 593 157"><path d="M69 5.6h11.6c.6 0 1.1.5 1.1 1.1v116.6c0 .6-.5 1.1-1.1 1.1H69c-.6 0-1.1-.5-1.1-1.1V6.7c0-.6.5-1.1 1.1-1.1zm80.1 96v2.9c0 1.3-.2 3-.7 5.3-.4 2.2-1.6 4.4-3.4 6.6-1.9 2.2-4.6 4.1-8.3 5.7s-8.8 2.3-15.4 2.3-11.6-.8-15.4-2.3c-3.7-1.6-6.5-3.4-8.3-5.7-1.9-2.2-3-4.4-3.4-6.7s-.7-3.9-.7-5.2V38.1c0-.6.5-1.1 1.1-1.1h11.6c.6 0 1.1.5 1.1 1.1v62.1c0 2.1.3 3.5.6 4.7.3 1.2.9 2.3 1.8 3.3.9 1.1 2.3 2 4.1 2.6 1.8.7 4.2 1.1 7.2 1.1 3.1 0 5.7-.4 7.5-1.1 1.9-.7 3.2-1.6 4.2-2.5 1-1 1.7-2.1 2-3.2s.7-2.2.7-5v-62c0-.6.5-1.1 1.1-1.1h11.6c.6 0 1.1.5 1.1 1.1l-.1 63.5zm39.6-64.5h7.8c.7 0 1.2.7 1 1.4l-2.6 10.2c-.1.5-.6.8-1 .8h-5.5c-2.9 0-5.3.4-7.1 1.2s-3.2 1.7-4.2 2.7c-1 1.1-1.6 2.2-1.9 3.2-.3 1.2-.4 2.3-.4 3.2v63.6c0 .6-.5 1.1-1.1 1.1H162c-.6 0-1.1-.5-1.1-1.1V57c0-1.2.2-2.9.7-5.2.4-2.3 1.6-4.4 3.4-6.7 1.9-2.2 4.6-4.1 8.3-5.7 3.6-1.6 8.8-2.3 15.4-2.3zm-160 0c9.5 0 16.4 1.9 20.9 5.6 4.4 3.7 6.7 8.4 6.7 14v47.9c0 2-.4 4.1-1.1 6.4-.7 2.3-2.1 4.5-4.1 6.4-2.1 2-4.9 3.5-8.4 4.9-3.5 1.3-8.2 2-13.9 2-5.8 0-10.4-.7-13.9-2s-6.4-2.9-8.4-4.9-3.4-4.1-4.1-6.4-1.1-4.5-1.1-6.4V97c0-4.1 1.1-7.8 3.1-11.2 2.2-3.3 5.1-5.8 9-7.1 2-.7 4.1-1.4 6.7-2.3 2.4-.9 4.9-1.7 7.2-2.5s4.3-1.6 6.1-2.2c1.8-.7 2.8-1 3.2-1.2s1-.5 1.7-.9 1.4-1 2.1-1.7c.7-.8 1.2-1.7 1.7-2.5.5-1 .7-2.2.7-3.4v-3c0-1.1-.2-2.2-.7-3.3-.4-1.2-1.2-2.2-2.3-3.1-1.1-1-2.5-1.8-4.3-2.3-1.8-.6-4-.9-6.8-.9-5.4 0-9 1.1-11 3.3-1.7 2-2.6 4.3-2.8 7 0 .6-.5 1-1.1 1H2c-.6 0-1.1-.5-1.1-1.1v-2.8c0-2.7.5-5.3 1.6-7.6 1-2.3 2.6-4.5 5-6.3 2.3-1.8 5.1-3.2 8.6-4.2 3.5-1.1 7.7-1.6 12.6-1.6zM42.6 80c-.2 1.1-.8 1.9-1.7 2.4-.9.6-1.7.9-2.4 1.2-1.7.6-3.4 1.2-5.3 1.9s-3.6 1.4-5.3 1.9c-2 .7-3.8 1.3-5.5 2-1.3.6-2.5 1.3-3.7 2.3-1 .9-1.9 2-2.6 3.3-.8 1.4-1.2 3-1.2 5.1 0 4.1 1 7.1 2.9 9.2 2 2 5.6 3 10.9 3 5.4 0 9.1-1.1 11.1-3.1 2-2.2 2.9-5.1 2.9-9L42.6 80zm187.8-42.9c9.5 0 16.4 1.9 20.9 5.6 4.4 3.7 6.7 8.4 6.7 14v47.9c0 2-.4 4.1-1.1 6.4s-2.1 4.5-4.1 6.4c-2.1 2-4.9 3.5-8.4 4.9-3.5 1.3-8.2 2-13.9 2-5.8 0-10.4-.7-13.9-2s-6.4-2.9-8.4-4.9-3.4-4.1-4.1-6.4c-.7-2.3-1.1-4.5-1.1-6.4V97c0-4.1 1.1-7.8 3.1-11.2 2.2-3.3 5.1-5.8 9-7.1 2-.7 4.1-1.4 6.7-2.3 2.4-.9 4.9-1.7 7.2-2.5s4.3-1.6 6.1-2.2c1.8-.7 2.8-1 3.2-1.2s1-.5 1.7-.9 1.4-1 2.1-1.7c.7-.8 1.2-1.7 1.7-2.5.5-1 .7-2.2.7-3.4v-3c0-1.1-.2-2.2-.7-3.3-.4-1.2-1.2-2.2-2.3-3.1-1.1-1-2.5-1.8-4.3-2.3-1.8-.6-4-.9-6.8-.9-5.4 0-9 1.1-11 3.3-1.7 2-2.6 4.3-2.8 7 0 .6-.5 1-1.1 1h-11.7c-.6 0-1.1-.5-1.1-1.1v-2.8c0-2.7.5-5.3 1.6-7.6 1-2.3 2.6-4.5 5-6.3 2.3-1.8 5.1-3.2 8.6-4.2s7.6-1.6 12.5-1.6zM244.3 80c-.2 1.1-.8 1.9-1.7 2.4-.9.6-1.7.9-2.4 1.2-1.7.6-3.4 1.2-5.3 1.9s-3.6 1.4-5.3 1.9c-2 .7-3.8 1.3-5.5 2-1.3.6-2.5 1.3-3.7 2.3-1 .9-1.9 2-2.6 3.3-.8 1.4-1.2 3-1.2 5.1 0 4.1 1 7.1 2.9 9.2 2 2 5.6 3 10.9 3 5.4 0 9.1-1.1 11.1-3.1 2-2.2 2.9-5.1 2.9-9l-.1-20.2z" style="fill:#fff"/><path d="M281 123.6c-2 0-3-.9-3-3V8.6c0-2 .9-3 3-3h7c2 0 3 .9 3 3v112.1c0 2-.9 3-3 3l-7-.1zm89.8-48.7c0-13.1-4.8-19-15.9-19s-15.9 5.9-15.9 19v45.8c0 2-.9 3-3 3h-7c-2 0-3-.9-3-3V73.5c0-18.7 10.1-28.8 28.8-28.8 18.7 0 28.8 10.1 28.8 28.8v47.2c0 2-.9 3-3 3h-7c-2 0-3-.9-3-3V74.9h.2zm81.6 47.9c0 17.3-11.1 27.6-29.3 27.6-10.3 0-18.7-2.8-25.3-8.6-1.4-1.2-1.6-2.7-.5-4.2l3-4.2c1.1-1.7 2.5-1.9 4.1-.5 5.1 4.2 11.1 6.2 17.9 6.2 11.2 0 17.2-6.1 17.2-17.3v-6.7h-.3c-3.9 5.1-10 7.8-18.2 7.8-17.6 0-27.3-10.3-27.3-29.5V74c0-19.2 10.1-29.5 29.3-29.5s29.5 10.3 29.5 29.5v48.8h-.1zm-13-30.7V75.3c0-13.3-5.1-19.5-16.5-19.5-11.2 0-16.4 6.2-16.4 19.5v16.8c0 13.6 5.1 19.6 16.4 19.6 11.1 0 16.5-6.5 16.5-19.6zm79.7 5.1c0 18.6-9.8 28.4-28.4 28.4s-28.4-9.8-28.4-28.4V49.4c0-2 .9-3 3-3h7c2 0 3 .9 3 3V96c0 12.6 4.8 18.2 15.6 18.2s15.6-5.6 15.6-18.2V49.4c0-2 .9-3 3-3h6.7c2 0 3 .9 3 3v47.8h-.1zM585.7 74v21.2c0 19.2-10.3 29.5-29.6 29.5-17.9 0-27.9-8.6-27.9-24 0-15 9.8-23.5 27.8-23.5h16.8v-1.9C572.8 61.1 567 55 555 55c-5.6 0-10.8 2-15.4 5.9-1.6 1.4-3 1.4-4.2-.3l-3.3-4.5c-1.1-1.6-.9-3 .5-4.2 6.7-5.5 14.5-8.1 23.5-8.1 19.3 0 29.6 10.3 29.6 30.2zm-12.9 20v-6.1h-15.3c-10.4 0-16.4 4.4-16.4 12.9 0 8.4 5 12.6 15 12.6 11 .1 16.7-6.5 16.7-19.4zM305 123.5c-2 0-3-.9-3-3V49.3c0-2 .9-3 3-3h7c2 0 3 .9 3 3v71.2c0 2-.9 3-3 3h-7zm9.1-89.9c-.8 1.1-1.9 1.7-3.3 1.7h-6.4c-2 0-2.8-1.4-1.7-3.1l11.7-18.9c.8-1.1 1.7-1.7 3.1-1.7h8.1c2.3 0 3 1.4 1.6 3.3l-13.1 18.7z" style="fill:#f34a5e"/></svg>