<svg xmlns="http://www.w3.org/2000/svg" width="126" height="25" fill="none"><path fill="#00974A" d="M75.02 19.516h-1.836c-.278 0-.602-.017-.97-.048a3.05 3.05 0 0 1-1.001-.255c-.3-.14-.536-.358-.705-.66-.17-.298-.194-.726-.07-1.284.182-.832.62-1.437 1.31-1.811.693-.373 1.564-.56 2.611-.56h1.63l-.97 4.618Zm3.983 2.042 1.963-9.131c.516-2.353.268-3.867-.749-4.937-1.014-1.07-2.637-1.414-4.86-1.414h-4.568c-.487.028-.728.274-.845.704l-.446 2.1c-.186.727.39.688.39.688h5.252s1.255-.057 1.564.934c.103.32.095.738-.018 1.251l-.09.28s-1.405.01-2.025.01c-.857 0-1.733.09-2.629.271a9.37 9.37 0 0 0-2.52.898 6.98 6.98 0 0 0-2.067 1.668c-.593.695-1.002 1.557-1.227 2.582-.226 1.027-.242 1.893-.043 2.6.2.705.573 1.28 1.128 1.73.554.45 1.262.77 2.129.963.867.192 1.846.288 2.937.288h4.815c1.668 0 1.909-1.485 1.909-1.485Zm40.693-2.042h-1.838c-.276 0-.601-.017-.966-.048a3.053 3.053 0 0 1-1.004-.255 1.539 1.539 0 0 1-.705-.66c-.17-.298-.194-.726-.07-1.284.182-.832.62-1.437 1.311-1.811.692-.373 1.563-.56 2.61-.56h1.631l-.969 4.618Zm3.984 2.042 1.96-9.131c.518-2.353.268-3.867-.748-4.937-1.017-1.07-2.636-1.414-4.86-1.414h-4.567c-.487.028-.731.274-.846.704l-.446 2.1c-.186.727.393.688.393.688h5.248s1.258-.057 1.565.934c.103.32.097.738-.017 1.251l-.089.28s-1.407.01-2.028.01c-.856 0-1.731.09-2.628.271a9.392 9.392 0 0 0-2.522.898 7.04 7.04 0 0 0-2.066 1.668c-.591.695-.998 1.557-1.225 2.582-.225 1.027-.241 1.893-.043 2.6.197.705.574 1.28 1.128 1.73.554.45 1.263.77 2.128.963.867.192 1.847.288 2.938.288h4.815c1.666 0 1.91-1.485 1.91-1.485ZM97.124 4.503c-.067.317-.38.575-.696.575h-3.302c-.314 0-.516-.258-.45-.575l.735-3.39c.069-.318.382-.576.696-.576h3.3c.316 0 .52.258.45.575l-.733 3.39Zm-8.355 18.566 3.464-16.402a.741.741 0 0 1 .688-.566h3.331c.314 0 .511.253.442.566L93.48 21.6c-.077.336-.132 1.469-1.406 1.469h-3.305ZM111.923 6.1h-11.682c-.49.03-.732.276-.849.708l-.458 2.099c-.189.727.39.688.39.688h6.696s-5.294 5.778-8.152 8.734c-.803.83-1.262 1.595-1.385 2.077l-.584 2.663h11.768c.102 0 .56-.038.707-.687l.473-2.099c.088-.42-.03-.662-.471-.7l.001-.004h-6.727s9.295-9.957 9.567-10.253c.422-.464.707-3.225.707-3.225Zm-45.218-.003c.442 0 .51.296.4.74l-.482 2.191c-.124.595-.546.563-.546.563h-4.905c-1.353 0-2.617 1.01-3.139 3.606l-.494 2.449c-.522 2.595.83 3.86 2.181 3.86h4.008s.646-.013.536.496l-.497 2.349c-.089.436-.307.672-.584.672h-4.552c-3.972 0-6.464-2.625-5.506-7.377l.492-2.45c.955-4.752 2.948-7.152 8.399-7.099h4.69Zm-19.593 7.376-.493 2.45c-.48 2.386-1.589 3.43-2.816 3.584h-1.91c-1.352 0-2.703-1.266-2.18-3.86l.494-2.45c.48-2.387 1.588-3.431 2.813-3.582h1.913c1.35 0 2.7 1.264 2.179 3.858Zm1.842-6.775c-.824-.391-1.802-.595-2.891-.6h-1.875c-1.051-.009-1.97.073-2.78.243-3.4.717-4.846 3.02-5.62 6.856l-.491 2.45c-.69 3.428.412 5.748 2.572 6.775.824.391 1.803.595 2.893.599h1.874c1.05.011 1.972-.07 2.78-.24 3.401-.718 4.844-3.02 5.62-6.858l.49-2.45c.69-3.427-.412-5.748-2.572-6.775ZM90.116.537H86.82a.75.75 0 0 0-.699.575l-.248 1.153h-.002L81.69 21.606s-.487 1.463.964 1.463h3.25L89.822 4.54l.011-.037.733-3.39c.069-.319-.132-.576-.45-.576ZM29.019 19.434c-2.552 0-1.98-2.164-1.98-2.164l2.988-14.244.415-1.914c.067-.317-.132-.575-.451-.575h-3.299a.75.75 0 0 0-.696.575l-.448 2.022-3.018 14.15c-.452 2.055-.327 3.514.465 4.423.796.91 2.016 1.361 3.663 1.361h7.526c.27-.01.699-.02.566-.56 0 0-1.185-1.65-1.63-3.074h-4.101Z"/><path fill="#D3D800" d="M10.439 5.944c0-4.246 11.34-5.76 11.34-5.76s-2.942 0-8.488.129C5.562.493 0 2.623 0 7.597c0 4.798 6.898 8.383 10.222 11.98 1.869 1.747 2.93 3.863 3.205 5.046.66-.733 1.622-2.003 1.533-3.653-.128-2.355-1.856-4.47-6.052-8.075C5.305 9.799 4.634 8.58 4.54 7.062c-.34-5.463 9.957-6.016 9.957-6.016S5.679 2.14 5.957 6.444c.15 2.286 2.142 3.83 5.68 6.509 5.256 3.976 4.988 6.894 4.988 6.894s1.658-2.25 1.068-4.899c-.842-3.792-7.254-6.018-7.254-9.004Z"/></svg>